<svg id="egzl06TjPNW1" xmlns="http://www.w3.org/2000/svg" xmlns:xlink="http://www.w3.org/1999/xlink" viewBox="0 0 300 300" shape-rendering="geometricPrecision" text-rendering="geometricPrecision"><ellipse rx="90.772282" ry="111.618684" transform="matrix(1.375116 0.926888-.823926 1.222363 142.668901 148.847794)" fill="#8670a1" stroke-width="0"/><ellipse rx="90.772282" ry="111.618684" transform="matrix(1.012914 0.682749-.6901 1.02382 142.668901 148.847794)" fill="#bbd2ff" stroke-width="0"/><path d="M180.54668,53.99986c-16.08816,0-31.16809,10.36767-39.98292,23.58992-15.29484,22.94226-32.44005,92.42484-40.38275,121.54809-5.42651,19.89721-12.96013,44.65407-35.5848,49.179" fill="none" stroke="#c65812" stroke-width="5"/><path d="M200.93798,44.00413c-1.69359,11.85515-4.353354,26.393098-6.820825,38.190977-8.063762,38.555787-16.367511,72.165687-23.96603,110.4926-3.784206,19.087525-8.620285,39.156043-12.394695,58.028133" fill="none" stroke="#c65812" stroke-width="5"/><path d="M119.37281,150.3587c28.35565,0,75.05162-4.10151,101.55663,1.19949" fill="none" stroke="#c65812" stroke-width="5"/></svg>
